{"title":"Journey.to.the.Shore.2015.720p.BRRip.x264.AC3.HORiZON-ArtSubs","uid":15058226,"size":1880879783,"categoryP":"video","categoryS":"movies","magnet":"?xt=urn:btih:6d45206dd7535f6f2b8276d8a4f65002e9caa22d&amp;dn=Journey.to.the.Shore.2015.720p.BRRip.x264.AC3.HORiZON-ArtSubs&amp;tr=udp%3A%2F%2Ftracker.leechers-paradise.org%3A6969&amp;tr=udp%3A%2F%2Fzer0day.ch%3A1337&amp;tr=udp%3A%2F%2Fopen.demonii.com%3A1337&amp;tr=udp%3A%2F%2Ftracker.coppersurfer.tk%3A6969&amp;tr=udp%3A%2F%2Fexodus.desync.com%3A6969","seeders":2,"leechers":3,"uploader":"noriegaRJ","files":1,"time":1466744055,"description":"Title: Kishibe no tabi aka Journey to the Shore\r\n\r\nRelease: Journey.to.the.Shore.2015.720p.BRRip.x264.AC3.HORiZON-ArtSubs\r\n\r\n\r\nIMDB Link:                                                            \nhttp://www.imdb.com/title/tt4173478/\r\n\r\n\r\nPlot: Mizuki's husband (Yusuke) drowned at sea three years ago. When he suddenly comes back home, she is not that surprised. Instead, Mizuki is wondering what took him so long. She agrees to let Yusuke take her on a journey.\r\n\r\n\r\nENGLISH AND BRAZILIAN PORTUGUESE SUBTITLES INSIDE MKV FILE.\r\n\r\n\r\n\r\nGeneral\r\nComplete name                            : Journey.to.the.Shore.2015.720p.BRRip.x264.AC3.HORiZON-ArtSubs\r\nFormat                                   : Matroska\r\nFormat version                           : Version 2\r\nFile size                                : 1.75 GiB\r\nDuration                                 : 2h 8mn\r\nOverall bit rate                         : 1 958 Kbps\r\nWriting application                      : HandBrake 0.9.5\r\nWriting library                          : libmkv 0.6.4.1\r\n\r\nVideo\r\nID                                       : 1\r\nFormat                                   : AVC\r\nFormat/Info                              : Advanced Video Codec\r\nFormat profile                           :   \r\nFormat settings, CABAC                   : Yes\r\nFormat settings, ReFrames                : 4 frames\r\nCodec ID                                 : V_MPEG4/ISO/AVC\r\nDuration                                 : 2h 8mn\r\nBit rate                                 : 1 319 Kbps\r\nWidth                                    : 1 280 pixels\r\nHeight                                   : 528 pixels\r\nDisplay aspect ratio                     : 2.40:1\r\nOriginal display aspect ratio            : 2.40:1\r\nFrame rate mode                          : Constant\r\nFrame rate                               : 23.976 fps\r\nColor space                              : YUV\r\nChroma subsampling                       : 4:2:0\r\nBit depth                                : 8 bits\r\nScan type                                : Progressive\r\nBits/(Pixel*Frame)                       : 0.081\r\nStream size                              : 1.14 GiB (65%)\r\nWriting library                          : x264 core 112\r\nLanguage                                 : English\r\nDefault                                  : Yes\r\nForced                                   : No\r\nColor primaries                          : BT.709\r\nTransfer characteristics                 : BT.709\r\nMatrix coefficients                      : BT.709\r\n\r\nAudio\r\nID                                       : 2\r\nFormat                                   : AC-3\r\nFormat/Info                              : Audio Coding 3\r\nMode extension                           : CM (complete main)\r\nFormat settings, Endianness              : Big\r\nCodec ID                                 : A_AC3\r\nDuration                                 : 2h 8mn\r\nBit rate mode                            : Constant\r\nBit rate                                 : 640 Kbps\r\nChannel count                            : 6 channels\r\nChannel positions                        : Front: L C R, Side: L R, LFE\r\nSampling rate                            : 48.0 KHz\r\nBit depth                                : 16 bits\r\nCompression mode                         : Lossy\r\nStream size                              : 586 MiB (33%)\r\nLanguage                                 : Japanese\r\nDefault                                  : Yes\r\nForced                                   : No\r\n\r\nText #1\r\nID                                       : 3\r\nFormat                                   : UTF-8\r\nCodec ID                                 : S_TEXT/UTF8\r\nCodec ID/Info                            : UTF-8 Plain Text\r\nLanguage                                 : English\r\nDefault                                  : No\r\nForced                                   : No\r\n\r\nText #2\r\nID                                       : 4\r\nFormat                                   : UTF-8\r\nCodec ID                                 : S_TEXT/UTF8\r\nCodec ID/Info                            : UTF-8 Plain Text\r\nLanguage                                 : Portuguese\r\nDefault                                  : No\r\nForced                                   : No\r\n\r\n\r\n\r\nThanks to those helping me seed. Leechers remember, the community depends on you. If nobody shares, the freebies go away. Remember, the only reason you can download this free movie is because others are generous enough to keep sharing it with you. If nobody shares, everybody loses, so even if its for an extra hour or two after you get it, remember, others want to see it too, and they can't without you.\r\n\r\n\r\nSEE MY OTHERS UPLOADS:                                                                                    \nhttp://thepiratebay.se/user/noriegaRJ\r\n\r\nAND SEE THIS ANOTHERS UPLOADS FROM &quot;HORiZON-ArtSubs&quot;:                                    \nhttp://thepiratebay.se/user/artsubs                                    \nhttp://thepiratebay.se/user/lletaif","torrent":{"xt":"urn:btih:6d45206dd7535f6f2b8276d8a4f65002e9caa22d","amp;dn":"Journey.to.the.Shore.2015.720p.BRRip.x264.AC3.HORiZON-ArtSubs","amp;tr":["udp%3A%2F%2Ftracker.leechers-paradise.org%3A6969","udp%3A%2F%2Fzer0day.ch%3A1337","udp%3A%2F%2Fopen.demonii.com%3A1337","udp%3A%2F%2Ftracker.coppersurfer.tk%3A6969","udp%3A%2F%2Fexodus.desync.com%3A6969"],"infoHash":"6d45206dd7535f6f2b8276d8a4f65002e9caa22d","infoHashBuffer":{"type":"Buffer","data":[109,69,32,109,215,83,95,111,43,130,118,216,164,246,80,2,233,202,162,45]},"announce":[],"urlList":[]}}